<svg width="438" height="926" viewBox="0 0 438 926" fill="none" xmlns="http://www.w3.org/2000/svg">
<mask id="mask0_85019_15316" style="mask-type:alpha" maskUnits="userSpaceOnUse" x="0" y="0" width="438" height="926">
<rect width="437.011" height="926" fill="#C4C4C4"/>
</mask>
<g mask="url(#mask0_85019_15316)">
<rect width="437.011" height="926" fill="#EEF4FF"/>
<path d="M380.354 1029L362.951 986.084L330.688 993.742L326.137 1029H318.907L330.288 940.736L310.603 942.823L274.461 1028.88H259.335L278.343 983.535L234.968 974.72L211.273 1027.26L215.96 1029H202.837L214.618 1002.9L167.495 987.245C160.462 1001.57 152.642 1015.51 144.069 1029H127.469C148.887 996.989 165.22 960.802 176.329 931.342L74.8516 924.615L94.938 1029H80.4793L74.0549 995.713L15.8217 1004.3L15.2862 1011.02L27.466 1029H19.1657L14.3465 1021.92L13.811 1029H6.71525L8.72353 1005.34L-33.8453 1011.6L-32.3748 1028.88H-46.6988L-46.9683 1025.67L-46.9683 827.491L-34.2495 789.842L-46.9683 788.906V776.573L-30.2341 777.784L-13.6336 728.602L-46.9683 714.672L-46.9683 691.989L-38.1313 695.664L-7.34156 601.722L-36.3914 587.568L-46.9683 615.72L-46.9683 595.816L-43.0853 585.48L-46.9683 584.917V578.697L-40.8098 579.56L-20.0591 524.352L-46.9683 514.859V508.145L-17.9173 518.441L19.3004 419.625L-46.9683 425.093V412.604L52.9023 404.432L-18.5863 333.334C-23.4711 333.736 -37.1436 334.928 -46.9683 335.688V329.638L-20.8617 327.419L-23.5344 292.736L-46.9683 295.328V274.562L-26.2176 272.328L-31.0332 245.995C-36.8683 246.789 -42.3412 247.539 -46.9683 248.159V241.804L-32.1077 239.852L-37.0604 213.292L-46.9683 214.413V208.19L-38.2661 207.14L-44.96 170.725L-46.9683 170.895V158.565L8.99185 153.909L0.154934 99.3972C-14.7467 102.065 -30.6032 104.103 -46.9683 105.634V93.253C-44.2273 92.9981 -41.505 92.7263 -38.8016 92.4376L-42.9517 43.3764L-46.9683 42.9515V30.4336L-44.1562 30.731L-46.6988 0.114844L-32.3748 0.114844L-24.61 90.6978C-16.3097 89.5378 -8.27775 88.3779 -0.512932 86.87L6.71525 0.114844L13.8122 0.114844L6.71525 85.3621C27.8678 80.9556 46.3419 75.04 60.5323 67.0377C61.4697 66.4577 62.5406 65.7618 63.6115 65.1829L19.3004 0.114844L27.6007 0.114844L46.4767 27.8358L82.2204 9.39421L80.4804 0.114844L94.938 0.114844L101.368 33.6343C110.989 23.1796 119.719 11.9689 127.469 0.114844L144.068 0.114844C142.06 3.36262 139.918 6.6104 137.642 9.85818L191.326 25.9799L202.973 0.114844L216.096 0.114844L253.581 13.6859L259.334 0.114844L274.46 0.114844L273.256 3.13064L317.033 14.8447L318.907 0.114844L326.137 0.114844L323.861 16.7006L358.132 25.9799C362.819 24.82 374.599 21.9202 387.853 18.7896L380.22 0L387.719 0C390.531 6.84238 392.94 12.9888 394.681 17.1657C405.658 14.4967 416.77 11.83 425.07 9.85818L419.578 0.114844L446.081 0.114844L448.491 4.17457L464.694 0.114844L515.7 0.114844C491.067 6.26127 468.309 12.0586 454.787 15.4258L477.547 55.6716L530.692 47.9001L523.866 0.114844L538.19 0.114844L544.884 45.9283L599.236 37.9248L607.269 0.114844L620.791 0.114844V49.369L617.175 65.9937L620.791 66.9125V73.2702L616.372 72.139L620.791 80.4078V109.801L611.687 92.7868L591.741 186.959C597.883 190.494 603.178 195.28 607.271 200.994L620.792 193.946V201.251L610.617 206.559C613.389 212.165 614.852 218.307 614.901 224.537C614.901 225.464 614.767 226.276 614.767 227.203L620.791 228.182V249.144L607.805 247.037C600.306 258.291 587.183 266.522 571.793 268.842L551.846 322.78L620.791 334.76V341.086L589.062 335.539C588.26 339.945 586.652 348.413 584.914 357.575L620.791 361.684V367.915L583.841 363.606C582.236 372.305 580.629 380.887 579.558 386.46L620.792 393.207V405.743L576.882 398.633L560.548 463.352L620.791 414.586V423.142L559.476 472.631L583.975 498.61L620.79 479.674V493.942L593.078 508.23L613.7 529.919L620.795 526.284V533.535L618.118 534.907L620.795 537.745V547.435L586.918 511.483L515.433 548.25L620.791 564.66V585.601L593.079 581.306L579.692 650.316L620.792 658.79V665.133L578.482 656.346L570.583 697.288C588.254 700.176 605.371 703.066 620.786 705.622V718.163L587.317 712.599L576.607 777.2L609.415 783.004L620.795 741.924V768.693L616.511 784.163L620.795 784.913V797.545L574.748 789.498L568.456 827.425L620.8 836.372V842.554L567.385 833.457L559.754 879.854L620.799 888.915V901.478L557.744 892.148L550.245 937.728L620.798 946.084V958.447L590.14 954.779L582.376 999.2L615.175 990.967L620.799 964.828V1028.88H607.002L612.227 1004.53C595.09 1008.93 566.442 1016.12 537.391 1023.43L538.193 1028.88H523.866L523.599 1026.91C520.92 1027.61 518.378 1028.19 515.702 1028.88H464.694L523.33 1014.27L528.552 982.255L434.037 1007.66L446.081 1029H419.578L391.466 979.359L369.779 984.463C372.857 992.117 381.157 1012.65 387.851 1029L380.354 1029ZM538.19 1010.44L574.737 1001.28L582.904 954.193L548.097 950.019L538.19 1010.44ZM-38.1313 961.96L-34.3819 1005.45L72.8492 989.564L65.6198 952.217L-38.1313 961.96ZM418.375 980.053L430.824 1001.97L466.569 992.231L459.875 969.73L418.375 980.053ZM170.308 981.446L217.293 996.986L228.004 973.328L178.605 963.238C176.065 969.268 173.253 975.298 170.308 981.446ZM466.702 968.107L473.396 990.491L529.622 975.414L533.505 951.527L466.702 968.107ZM337.515 939.924L331.489 987.129L388.251 973.675L367.234 936.56L337.515 939.924ZM242.6 963.697L283.296 971.932L296.147 941.08L270.444 931.92L242.6 963.697ZM393.34 935.746L412.082 968.801L535.781 938.182L539.53 915.68L414.225 900.03L393.34 935.746ZM183.56 951.636L235.102 962.073L265.09 927.858L236.173 885.177L206.721 884.481C200.309 907.28 192.576 929.702 183.56 951.638V951.636ZM-42.0143 915.8L-39.2023 949.55L63.3444 939.924L57.3207 908.492L-42.0143 915.8ZM313.418 936.445L364.022 930.762L347.15 901.07C341.803 902.615 336.257 903.396 330.683 903.39C329.566 903.412 328.449 903.374 327.336 903.275L313.418 936.445ZM274.997 926.818L298.692 935.284L313.285 900.601C309.4 899.459 305.669 897.862 302.173 895.846L274.997 926.818ZM367.369 890.052L389.325 928.79L422.53 872.189L381.833 866.158C379.823 875.464 374.74 883.862 367.369 890.051V890.052ZM73.6518 918.235L178.609 925.193C184.901 907.911 189.451 893.529 192.13 884.135L66.556 881.005L73.6518 918.235ZM269.911 922.641L296.686 892.139C294.414 890.481 292.307 888.617 290.393 886.571L244.609 885.411L269.911 922.641ZM-42.4151 909.768L56.2486 902.461L52.0973 880.773L-45.0936 878.337L-42.4151 909.768ZM488.128 903.042L540.471 909.536L543.684 890.051L493.349 882.744L488.128 903.042ZM417.576 894.226L481.031 902.114L486.387 881.584L429.758 873.351L417.576 894.226ZM302.445 858.272C302.445 871.842 315.164 882.746 330.693 882.746C346.358 882.746 358.942 871.726 358.942 858.272C358.942 844.704 346.223 833.799 330.693 833.799C315.164 833.799 302.575 844.817 302.44 858.271L302.445 858.272ZM465.504 866.044L545.692 877.873L549.709 853.87L470.59 840.995L465.504 866.044ZM244.473 864.887L279.548 865.699C278.989 863.265 278.763 860.769 278.878 858.277C278.897 855.866 279.121 853.461 279.548 851.087L249.829 838.677L244.473 864.887ZM184.23 836.705L180.349 863.265L237.11 864.655L243 835.893L198.02 817.103L184.23 836.705ZM376.606 837.401C379.724 842.373 381.689 847.956 382.363 853.754L451.44 863.961L467.375 785.673L376.606 837.401ZM66.8243 860.484L173.253 863.152L176.869 838.1L75.9272 819.195L66.8243 860.484ZM-42.4151 857.808L52.3656 860.128L55.8467 844.354L-35.0533 836.119L-42.4151 857.808ZM471.791 834.84L550.775 847.83L553.721 829.62L479.69 796.45L471.791 834.84ZM15.1503 834.38L57.1871 838.208L73.3847 764.906L38.4482 750.292L15.1503 834.38ZM-32.9079 830.09L8.0545 833.799L31.8868 747.624L-0.647675 734.054L-32.9079 830.09ZM140.724 824.987L179.011 832.179L191.461 814.317L156.386 799.703L140.724 824.987ZM365.897 825.217C368.436 827.274 370.767 829.565 372.859 832.059L469.114 777.317L470.319 771.285L391.067 757.367L365.897 825.217ZM220.911 803.877L288.518 832.059C293.161 826.545 298.96 822.074 305.521 818.95L294.408 780.559L220.911 803.877ZM77.2618 813.039L133.488 823.593L149.955 796.918L86.6318 770.474L77.2618 813.039ZM481.022 790.07L554.787 823.126L560.677 787.054L484.369 773.718L481.022 790.07ZM303.378 727.095L328.546 813.27H330.689C335.476 813.252 340.245 813.837 344.88 815.01L372.859 739.041L360.14 711.786L303.378 727.095ZM173.655 784.037L212.076 800.16L261.07 784.623L251.832 755.859L173.655 784.037ZM244.473 710.156L267.632 782.302L292.665 774.416L271.381 701.235L244.473 710.156ZM106.448 755.97L165.084 780.443L192.526 770.589L169.232 735.217L106.448 755.97ZM486.779 761.537L562.686 774.875L573.397 710.273L499.766 697.978L486.779 761.537ZM175.929 732.89L199.088 768.152L249.822 749.828L237.773 712.366L175.929 732.89ZM395.48 745.532L472.86 759.103L485.846 695.66L418.106 684.405L395.48 745.532ZM55.712 734.747L88.7807 748.551L157.858 725.697L77.6672 678.037L55.712 734.747ZM339.389 650.774L376.337 729.875L418.506 615.865L339.389 650.774ZM-25.0084 701.111L42.8655 729.411L65.0879 671.767L-6.13707 643.469L-25.0084 701.111ZM129.342 648.924L120.906 696.24L165.886 723.033L193.196 713.985L214.755 618.764C195.612 612.964 173.389 606.237 153.977 600.322L129.342 648.924ZM275.264 630.25L301.771 721.18L357.595 706.103L317.301 619.926L275.264 630.25ZM201.096 711.322L268.032 689.17L250.629 629.556C243.4 627.351 233.226 624.22 221.578 620.74L201.096 711.322ZM509.271 686.966C526.943 689.865 545.417 692.995 563.489 696.012L585.986 580.145L574.473 578.291L509.271 686.966ZM80.0797 672.004L114.485 692.418L121.848 650.779L89.4509 647.416L80.0797 672.004ZM422.526 672.578C438.461 675.247 468.176 680.118 502.047 685.8L507.001 677.566L440.064 625.027L422.526 672.578ZM478.62 646.947L510.214 671.882L566.976 577.241L530.83 571.558L478.62 646.947ZM-4.26118 637.441L67.3598 665.857L75.5265 644.631L2.16322 618.071L-4.26118 637.441ZM323.462 616.679L336.716 645.095L420.116 608.327L345.28 591.742L323.462 616.679ZM91.9947 641.616L123.857 644.864L147.29 598.353C132.431 593.829 119.846 590.002 112.618 587.797L91.9947 641.616ZM442.475 618.533L473.264 642.78L523.333 570.406L463.623 561.126L442.475 618.533ZM41.258 618.877L80.082 632.912L98.958 583.968L60.4023 573.645L41.258 618.877ZM273.394 624.213L317.17 613.426L337.653 589.998L258.4 572.484L273.394 624.213ZM179.28 601.48L248.36 622.473L232.024 566.459L192.665 556.253L179.28 601.48ZM6.17979 606.125L34.83 616.447L73.3788 525.518L35.7651 515.774L6.17979 606.125ZM114.751 581.884L172.585 599.398L185.839 554.396L130.816 540.246L114.751 581.884ZM400.436 591.163L425.471 596.727L438.189 562.513L411.817 554.859L400.436 591.163ZM27.0652 418.929L-34.1148 581.537L-5.33328 595.57L53.303 416.842L27.0652 418.929ZM355.86 581.421L393.613 589.771L405.126 553.005L373.13 543.728L355.86 581.421ZM311.014 505.221L284.773 518.327L301.373 569.127L341.937 578.059L377.815 500.232L311.014 505.221ZM63.0831 567.735C71.1151 569.939 90.796 575.275 101.372 578.059L117.307 536.769L80.225 527.257L63.0831 567.735ZM247.961 536.769L254.388 558.921L293.212 567.503L278.343 521.574L247.961 536.769ZM375.676 537.928L440.337 556.601L461.078 500.58L402.174 480.399L375.676 537.928ZM165.357 536.305L228.146 552.425L212.483 498.841L165.357 536.305ZM470.987 541.407L494.013 545.003L538.459 522.149C540.602 513.335 545.288 495.009 550.374 474.713L499.503 464.275L470.987 541.407ZM94.5372 445.605L76.3291 513.34L157.322 534.216L210.603 492.114L196.275 443.053L94.5372 445.605ZM232.832 484.692L246.219 530.505L304.588 501.394C297.626 493.274 277.278 469.847 270.986 462.54L232.832 484.692ZM546.898 517.631L577.822 501.74L556.53 479.242L546.898 517.631ZM39.6481 503.945L69.4981 511.6L81.1448 468.222L53.8349 460.683L39.6481 503.945ZM276.869 458.944L311.543 498.958L380.62 493.854L381.959 490.955L311.277 438.878L276.869 458.944ZM404.853 474.602L463.356 494.666L476.743 458.364L420.517 440.618L404.853 474.602ZM357.327 464.742L384.772 484.924L407.663 435.052L390.394 424.149L357.327 464.742ZM225.999 461.495L230.951 478.313L266.561 457.552L254.113 443.985L225.999 461.495ZM501.644 458.479L551.846 468.685C559.075 440.385 566.705 410.115 569.785 397.587L526.677 390.628L501.644 458.479ZM68.5608 415.566L55.7132 454.652L82.7559 462.19L95.8788 413.362L68.5608 415.566ZM294.672 418.697L351.835 460.683L384.635 420.437L338.314 391.442L294.672 418.697ZM259.867 440.27C263.883 444.677 269.505 450.824 272.451 454.071L305.517 434.703L288.645 422.293L259.867 440.27ZM423.057 434.935L478.882 452.448L487.45 429.135C476.201 424.265 456.659 415.449 436.578 405.477L423.057 434.935ZM199.626 370.216L222.384 448.503L285.441 409.188L268.037 358.851L199.626 370.216ZM103.372 412.782L96.1425 439.458L194.401 436.907L185.431 406.055L103.372 412.782ZM344.476 387.615L410.475 429.021L424.131 399.214C407.397 390.63 391.332 381.468 380.354 373.233C378.483 371.786 376.695 370.237 375 368.594L344.476 387.615ZM386.111 360.94C387.213 361.971 388.375 362.939 389.592 363.838C414.359 382.28 468.175 406.868 491.872 417.306L507.668 374.62L443.408 318.368L386.111 360.94ZM58.1222 321.621L69.2345 403.16L102.434 400.376L89.8505 317.564L58.1222 321.621ZM284.905 364.997L297.621 401.648L329.75 381.699L316.491 351.891L284.905 364.997ZM109.53 399.795L181.956 393.88L178.475 381.822L103.369 359.088L109.53 399.795ZM-16.4445 292.047L-13.6324 328.931L53.9744 396.201L38.8478 286.133L-16.4445 292.047ZM531.095 378.687L572.462 385.414L582.1 334.381L549.571 328.699L531.095 378.687ZM300.031 297.612L335.775 377.871L366.434 358.734C347.824 334.262 332.697 293.668 324.53 268.848L300.031 297.612ZM96.9451 316.633L102.301 352.235L176.333 374.62L157.188 308.857L96.9451 316.633ZM170.976 272.096L197.752 364.301L265.894 352.817L235.37 265.25L170.976 272.096ZM454.252 310.254L512.62 361.403L537.789 293.088L499.904 276.271L454.252 310.254ZM272.587 329.739L282.762 358.966L313.953 345.977L294.945 303.411L272.587 329.739ZM355.053 310.022C361.614 325.215 369.244 340.177 377.549 351.196L399.907 334.495L380.093 301.671L355.053 310.022ZM386.781 299.237L405.522 330.32L433.101 309.675L408.87 291.812L386.781 299.237ZM249.693 263.865L270.042 322.435L322.115 261.193C321.58 259.452 321.044 257.83 320.643 256.322L249.693 263.865ZM53.0358 284.62L57.3195 315.475L155.448 302.951L147.147 274.65L53.0358 284.62ZM427.344 244.955L413.554 287.172L438.589 305.614L517.709 246.814C515.447 243.442 513.689 239.771 512.488 235.912L427.344 244.955ZM334.972 254.813C338.453 266.182 344.745 284.968 352.644 304.106L406.728 286.013L419.848 245.765L334.972 254.813ZM505.661 271.978L539.932 287.172L547.296 267.455C539.607 265.357 532.478 261.636 526.411 256.553L505.661 271.978ZM-23.9445 245.071L-19.1253 271.516L34.8265 265.833L27.3277 238.229C16.7567 239.619 -4.79665 242.52 -23.9421 245.071H-23.9445ZM48.8857 264.324L145.944 254.001L142.195 241.713L41.6563 237.653L48.8857 264.324ZM168.701 251.565L228.146 245.306L192.268 195.434L168.701 251.565ZM534.576 224.425C534.576 237.996 547.295 248.898 562.822 248.898C578.35 248.898 591.071 237.996 591.071 224.425C591.071 210.854 578.352 199.954 562.822 199.954C547.16 199.954 534.576 210.968 534.576 224.425ZM196.949 190.327L235.906 244.492L258.799 242.055L258.933 181.977L196.949 190.327ZM157.322 242.636L193.463 156.807L125.456 136.047L157.322 242.636ZM266.161 181.05L266.026 241.36L341.933 233.357L333.901 171.886L266.161 181.05ZM-29.9658 212.479L-25.1466 238.924L25.7248 232.197L18.8974 206.797L-29.9658 212.479ZM70.4355 161.215L85.1602 233.242L140.45 235.446L117.156 157.39L70.4355 161.215ZM22.2437 165.159L40.0535 231.384L77.8066 232.891L63.2108 161.795L22.2437 165.159ZM345.549 206.913L348.897 232.545L391.597 228.022L387.045 202.505L345.549 206.913ZM394.548 163.766L405.797 226.513L454.26 221.409L442.88 157.271L394.548 163.766ZM449.969 156.344L461.483 220.599L512.086 215.263C514.494 205.768 520.05 197.326 527.882 191.261L504.054 149.042L449.969 156.344ZM-37.8642 170.147L-31.1715 206.333L17.1574 200.765L7.91975 166.319L-37.8642 170.147ZM340.863 171.075L344.744 200.765L385.976 196.474L380.489 165.738L340.863 171.075ZM480.894 61.4701L548.767 181.165C549.134 181.144 549.496 181.067 549.839 180.935L531.631 54.0466L480.894 61.4701ZM545.689 51.961L563.894 179.541C565.634 179.656 567.241 179.77 568.981 179.885L597.765 44.4204L545.689 51.961ZM199.76 177.569L260.673 169.333L286.108 90.4646L242.465 76.1999L199.76 177.569ZM268.438 168.29L305.521 163.302L322.79 102.527L292.802 92.6685L268.438 168.29ZM313.018 162.375L368.709 154.836L362.952 115.866L329.349 104.852L313.018 162.375ZM11.5415 126.073L15.9587 153.329L113.419 145.211L102.843 110.298L11.5415 126.073ZM379.284 128.28L382.897 152.868L497.359 137.443L482.638 111.343L379.284 128.28ZM160.936 140.339L195.878 151.009L210.738 115.637L173.253 102.181L160.936 140.339ZM123.318 128.74L154.243 138.251L166.693 99.7451L108.326 78.6346L123.318 128.74ZM365.896 36.998L378.346 122.129L425.202 114.474C419.717 100.673 399.365 48.0173 392.534 30.6185L365.896 36.998ZM68.2971 77.4758C52.0973 86.5232 31.0806 93.253 7.11714 98.2372L10.5982 120.041L101.096 104.384L88.9108 63.5579C82.4349 68.736 75.5411 73.3906 68.2971 77.4758ZM399.498 28.9946L432.297 113.431L479.42 105.656L431.627 21.2197L399.498 28.9946ZM175.261 96.1494L213.148 109.835L237.11 52.7706L193.463 39.6658L175.261 96.1494ZM295.077 86.87L362.014 108.907L356.526 71.3294L310.874 56.9475L295.077 86.87ZM100.561 53.4677L105.916 71.3294L168.568 93.8272L186.774 37.6917L129.878 20.6454C121.116 32.4148 111.305 43.3987 100.561 53.4677ZM244.875 70.1695L288.517 84.5525L305.652 51.845L314.219 27.025L268.301 14.7298L244.875 70.1695ZM313.419 51.1491L355.588 64.371L351.572 37.1129L321.049 28.8786L313.419 51.1491ZM50.0902 33.1703L69.4981 61.586C76.4898 56.8134 83.1122 51.5411 89.3115 45.8123L83.5585 15.8898L50.0902 33.1703ZM198.02 27.9506L242.065 41.1726L251.168 19.4832L208.729 4.17457L198.02 27.9506Z" fill="white"/>
</g>
</svg>
